HIERARCHY
ROOT hip
{
  OFFSET 0 0 0
  CHANNELS 6 Xposition Yposition Zposition Zrotation Yrotation Xrotation
  JOINT abdomen
  {
    OFFSET 0 20.6881 -0.73152
    CHANNELS 3 Zrotation Xrotation Yrotation
    JOINT chest
    {
      OFFSET 0 11.7043 -0.48768
      CHANNELS 3 Zrotation Xrotation Yrotation
      JOINT neck
      {
        OFFSET 0 22.1894 -2.19456
        CHANNELS 3 Zrotation Xrotation Yrotation
        JOINT head
        {
          OFFSET -0.24384 7.07133 1.2192
          CHANNELS 3 Zrotation Xrotation Yrotation
          JOINT leftEye
          {
            OFFSET 4.14528 8.04674 8.04672
            CHANNELS 3 Zrotation Xrotation Yrotation
            End Site
            {
              OFFSET 1 0 0
            }
          }
          JOINT rightEye
          {
            OFFSET -3.6576 8.04674 8.04672
            CHANNELS 3 Zrotation Xrotation Yrotation
            End Site
            {
              OFFSET 1 0 0
            }
          }
        }
      }
      JOINT rCollar
      {
        OFFSET -2.68224 19.2634 -4.8768
        CHANNELS 3 Zrotation Xrotation Yrotation
        JOINT rShldr
        {
          OFFSET -8.77824 -1.95073 1.46304
          CHANNELS 3 Zrotation Xrotation Yrotation
          JOINT rForeArm
          {
            OFFSET -28.1742 -1.7115 0.48768
            CHANNELS 3 Zrotation Xrotation Yrotation
            JOINT rHand
            {
              OFFSET -22.5879 0.773209 7.07136
              CHANNELS 3 Zrotation Xrotation Yrotation
              JOINT rThumb1
              {
                OFFSET -1.2192 -0.487915 3.41376
                CHANNELS 3 Zrotation Xrotation Yrotation
                JOINT rThumb2
                {
                  OFFSET -3.37035 -0.52449 3.41376
                  CHANNELS 3 Zrotation Xrotation Yrotation
                  End Site
                  {
                    OFFSET -1.78271 -1.18214 1.43049
                  }
                }
              }
              JOINT rIndex1
              {
                OFFSET -7.75947 0.938293 5.60832
                CHANNELS 3 Zrotation Xrotation Yrotation
                JOINT rIndex2
                {
                  OFFSET -2.54057 -0.884171 1.56538
                  CHANNELS 3 Zrotation Xrotation Yrotation
                  End Site
                  {
                    OFFSET -1.62519 -0.234802 1.16502
                  }
                }
              }
              JOINT rMid1
              {
                OFFSET -8.24714 1.18213 3.41376
                CHANNELS 3 Zrotation Xrotation Yrotation
                JOINT rMid2
                {
                  OFFSET -3.10165 -0.590103 1.0647
                  CHANNELS 3 Zrotation Xrotation Yrotation
                  End Site
                  {
                    OFFSET -2.48547 -0.328903 0.83742
                  }
                }
              }
              JOINT rRing1
              {
                OFFSET -8.82822 0.546677 1.51678
                CHANNELS 3 Zrotation Xrotation Yrotation
                JOINT rRing2
                {
                  OFFSET -2.60934 -0.819778 -0.0198488
                  CHANNELS 3 Zrotation Xrotation Yrotation
                  End Site
                  {
                    OFFSET -2.33842 -0.294052 0.168128
                  }
                }
              }
              JOINT rPinky1
              {
                OFFSET -8.27202 -0.0477905 -0.4584
                CHANNELS 3 Zrotation Xrotation Yrotation
                JOINT rPinky2
                {
                  OFFSET -1.82734 -0.647385 -0.700984
                  CHANNELS 3 Zrotation Xrotation Yrotation
                  End Site
                  {
                    OFFSET -1.69225 -0.51767 -0.607171
                  }
                }
              }
            }
          }
        }
      }
      JOINT lCollar
      {
        OFFSET 2.68224 19.2634 -4.8768
        CHANNELS 3 Zrotation Xrotation Yrotation
        JOINT lShldr
        {
          OFFSET 8.77824 -1.95073 1.46304
          CHANNELS 3 Zrotation Xrotation Yrotation
          JOINT lForeArm
          {
            OFFSET 28.1742 -1.7115 0.48768
            CHANNELS 3 Zrotation Xrotation Yrotation
            JOINT lHand
            {
              OFFSET 22.5879 0.773209 7.07136
              CHANNELS 3 Zrotation Xrotation Yrotation
              JOINT lThumb1
              {
                OFFSET 1.2192 -0.487915 3.41376
                CHANNELS 3 Zrotation Xrotation Yrotation
                JOINT lThumb2
                {
                  OFFSET 3.37035 -0.52449 3.41376
                  CHANNELS 3 Zrotation Xrotation Yrotation
                  End Site
                  {
                    OFFSET 1.78271 -1.18214 1.43049
                  }
                }
              }
              JOINT lIndex1
              {
                OFFSET 7.75947 0.938293 5.60832
                CHANNELS 3 Zrotation Xrotation Yrotation
                JOINT lIndex2
                {
                  OFFSET 2.54057 -0.884171 1.56538
                  CHANNELS 3 Zrotation Xrotation Yrotation
                  End Site
                  {
                    OFFSET 1.62519 -0.234802 1.16502
                  }
                }
              }
              JOINT lMid1
              {
                OFFSET 8.24714 1.18213 3.41376
                CHANNELS 3 Zrotation Xrotation Yrotation
                JOINT lMid2
                {
                  OFFSET 3.10165 -0.590103 1.0647
                  CHANNELS 3 Zrotation Xrotation Yrotation
                  End Site
                  {
                    OFFSET 2.48547 -0.328903 0.83742
                  }
                }
              }
              JOINT lRing1
              {
                OFFSET 8.82822 0.546677 1.51678
                CHANNELS 3 Zrotation Xrotation Yrotation
                JOINT lRing2
                {
                  OFFSET 2.60934 -0.819778 -0.0198488
                  CHANNELS 3 Zrotation Xrotation Yrotation
                  End Site
                  {
                    OFFSET 2.33842 -0.294052 0.168128
                  }
                }
              }
              JOINT lPinky1
              {
                OFFSET 8.27202 -0.0477905 -0.4584
                CHANNELS 3 Zrotation Xrotation Yrotation
                JOINT lPinky2
                {
                  OFFSET 1.82734 -0.647385 -0.700984
                  CHANNELS 3 Zrotation Xrotation Yrotation
                  End Site
                  {
                    OFFSET 1.69225 -0.51767 -0.607171
                  }
                }
              }
            }
          }
        }
      }
    }
  }
  JOINT rButtock
  {
    OFFSET -8.77824 4.35084 1.2192
    CHANNELS 3 Zrotation Xrotation Yrotation
    JOINT rThigh
    {
      OFFSET 0 -1.70687 -2.19456
      CHANNELS 3 Zrotation Xrotation Yrotation
      JOINT rShin
      {
        OFFSET 0 -36.8199 0.73152
        CHANNELS 3 Zrotation Xrotation Yrotation
        JOINT rFoot
        {
          OFFSET 0.73152 -45.1104 -5.12064
          CHANNELS 3 Zrotation Xrotation Yrotation
          End Site
          {
            OFFSET -1.1221 -3.69964 12.103
          }
        }
      }
    }
  }
  JOINT lButtock
  {
    OFFSET 8.77824 4.35084 1.2192
    CHANNELS 3 Zrotation Xrotation Yrotation
    JOINT lThigh
    {
      OFFSET 0 -1.70687 -2.19456
      CHANNELS 3 Zrotation Xrotation Yrotation
      JOINT lShin
      {
        OFFSET 0 -36.8199 0.73152
        CHANNELS 3 Zrotation Xrotation Yrotation
        JOINT lFoot
        {
          OFFSET -0.73152 -45.1104 -5.12064
          CHANNELS 3 Zrotation Xrotation Yrotation
          End Site
          {
            OFFSET 1.1221 -3.69964 12.103
          }
        }
      }
    }
  }
}
MOTION
Frames:	4
Frame Time:	0.03333
0.0 0.0 0.0 0.0 0.0 0.0 0.0 0.0 0.0 0.0 0.0 0.0 0.0 0.0 0.0 0.0 0.0 0.0 0.0 0.0 0.0 0.0 0.0 0.0 0.0 0.0 0.0 0.0 0.0 0.0 0.0 0.0 0.0 0.0 0.0 0.0 0.0 0.0 0.0 0.0 0.0 0.0 0.0 0.0 0.0 0.0 0.0 0.0 0.0 0.0 0.0 0.0 0.0 0.0 0.0 0.0 0.0 0.0 0.0 0.0 0.0 0.0 0.0 0.0 0.0 0.0 0.0 0.0 0.0 0.0 0.0 0.0 0.0 0.0 0.0 0.0 0.0 0.0 0.0 0.0 0.0 0.0 0.0 0.0 0.0 0.0 0.0 0.0 0.0 0.0 0.0 0.0 0.0 0.0 0.0 0.0 0.0 0.0 0.0 0.0 0.0 0.0 0.0 0.0 0.0 0.0 0.0 0.0 0.0 0.0 0.0 0.0 0.0 0.0 0.0 0.0 0.0 0.0 0.0 0.0 0.0 0.0 0.0 0.0 0.0 0.0 0.0 0.0 0.0 0.0 0.0 0.0
0.46340000000000003 62.2869 1.8314000000000001 -0.629676 22.84812 6.675611 -3.710754 14.981117 14.0843 2.949406 -11.058474 -14.781866 -15.546661 27.28198 -72.814781 44.225332 3.863687 40.787085 -0.002456 -0.0 0.001368 0.003482 0.0 6.6e-05 -158.467473 -30.055187 166.921342 165.468098 -15.210762 -167.507462 77.900121 17.960173 125.38095 -149.904076 59.786506 125.730248 -9.137236 8.700361 2.079976 -101.042853 6.434242 92.502217 -35.098552 35.161029 26.61166 -171.818721 -22.66126 110.799758 -9.541284 23.115235 6.510562 -7.234831 26.206317 6.049314 -0.013326 -1.323375 -0.414457 -156.007961 -13.747309 173.488569 -145.398271 12.778564 -142.02186 73.18338 84.119134 -35.081156 -4.231302 -44.313314 8.558269 25.191575 -55.351603 88.592762 169.80156 42.831043 81.662585 7.903907 -7.407794 3.521774 85.829839 38.631573 -47.955081 -12.586466 -22.247756 -22.771277 27.171276 30.468935 -19.89044 -122.162147 -61.867184 -67.848407 0.219944 0.638456 -0.122183 170.273495 -26.251948 -144.304329 145.119747 0.18616 179.185183 152.383704 -25.063066 175.32948 160.267719 66.818017 151.11403 16.450846 -31.576713 17.312609 -179.990615 75.748709 -0.008281 161.415923 14.62155 -103.752926 -56.600647 -21.00371 59.083613 -40.47827 -44.84787 49.137136 -179.996136 75.74871 -0.003987 -143.323222 50.077147 -111.940132 -66.38435 6.40463 130.822299 -151.403969 -11.02076 12.832817
0.6787 62.244600000000005 2.5741 0.545299 18.851957 7.030029 -4.134666 14.339166 0.858494 4.488029 -9.879174 -0.495649 -14.89214 30.925344 -94.046987 44.370477 17.550123 58.340708 0.000504 0.0 0.001515 0.000327 0.0 0.002805 -159.220295 -48.028377 170.415793 177.173085 -13.886507 -157.054599 -19.087262 -66.715405 70.693525 -5.413807 11.740041 -0.517684 -163.145486 -0.827398 89.388663 141.328899 -45.687356 91.528867 29.398272 -49.646293 -4.160054 -6.502492 29.29033 7.143409 23.902291 -61.334107 1.398138 -2.341121 14.699848 2.754491 -145.100167 -1.522683 -178.651168 -147.998276 -43.027433 -170.612125 -160.267401 66.818158 -151.11368 -163.74074 58.506232 -147.320001 48.782237 -86.435419 70.444936 157.540451 -0.865868 126.980568 50.732172 -82.145887 -50.395542 6.872838 -11.042566 3.879926 -51.059357 -41.20457 -12.855878 20.740027 3.761192 10.302155 155.193805 -24.300402 -122.141452 46.996777 55.250593 -33.062502 125.64376 49.840425 -115.27506 -80.902396 -77.732506 -52.271415 0.014477 -1.323196 0.415595 61.269139 -86.802605 82.926047 157.329661 57.246986 150.509935 86.509986 -52.201075 85.128687 179.994173 75.749383 0.003987 161.388365 14.728103 -0.0 -22.868019 58.623393 -51.272007 23.409986 -80.505273 125.230783 -0.0 -0.000508 -0.000275 19.314872 -16.056475 -73.280719 -66.175972 13.416704 172.056812 -98.575566 44.071471 -2.880365
0.8151 62.124500000000005 3.1853 1.525479 15.613638 7.404747 -5.00155 13.501038 0.967375 4.535849 -9.712452 -0.170443 -5.682961 17.439961 2.634435 4.637998 -30.97287 -30.730323 -0.002926 0.0 -0.004879 0.00302 0.0 0.000493 -155.459783 -3.227681 161.777952 156.78644 -3.273216 177.517416 93.509643 20.416884 86.234562 -150.480451 59.167211 126.169451 -175.197986 -12.846211 89.807453 -77.905551 7.438573 25.073231 153.869416 -71.664979 97.695519 8.930195 12.851009 -5.043732 -151.477795 17.842096 137.539268 5.284047 -5.850119 -0.335067 -72.757386 -72.145314 -89.771202 -150.965436 -1.63856 176.563219 -103.687123 -45.139731 -101.853096 4.590018 3.318792 -0.279495 -2.82228 -21.775507 4.329149 103.306073 -2.85387 166.796497 -26.279348 12.182882 147.33944 163.497961 25.897942 -135.977 78.030381 38.688593 -42.413074 -2.779319 -15.168006 -24.144332 162.63772 -37.464968 -122.650174 -125.227307 -70.370171 -67.451394 36.037344 51.722553 -29.833078 -3.37948 0.078551 -0.081072 145.099946 -1.521778 178.651528 -12.259006 44.696987 3.862355 137.664162 -7.992115 134.92598 137.412854 -12.288787 134.147051 179.994944 75.750144 0.003459 162.011034 13.522461 3.983509 8.624581 65.449361 117.616812 -111.336897 -35.213226 161.306847 179.994944 75.750144 0.003459 -153.622236 58.515962 57.731539 68.192764 13.04655 119.44247 -48.49971 26.369381 -172.468528
